<svg width="81" height="81" viewBox="0 0 81 81" fill="none" xmlns="http://www.w3.org/2000/svg">
<g filter="url(#filter0_i_10911_2827)">
<path d="M0 40.1491C0 17.9754 17.9754 0 40.1491 0C62.3228 0 80.2981 17.9754 80.2981 40.1491C80.2981 62.3228 62.3228 80.2981 40.1491 80.2981C17.9754 80.2981 0 62.3228 0 40.1491Z" fill="url(#paint0_linear_10911_2827)" fill-opacity="0.2"/>
<path d="M54.6327 52.3115C54.4813 51.9078 44.9937 46.2556 44.9937 46.2556C43.6816 45.2968 43.4798 44.3379 44.59 43.7828C45.4984 43.3286 46.3059 41.8146 46.9115 40.1997C47.0124 40.2502 47.1133 40.2502 47.2647 40.1997C49.788 39.4428 49.8385 34.3962 48.1226 35.3046C49.6871 21.5778 30.7119 21.5778 32.2764 35.3046C30.5605 34.3962 30.5605 39.4932 33.0838 40.1997C33.1847 40.2502 33.3361 40.1997 33.4371 40.1997C34.0427 41.8146 34.8501 43.3286 35.7585 43.7828C36.8687 44.3379 36.6164 45.2463 35.3043 46.3061C34.8501 46.6594 28.7437 50.091 27.0279 51.2518C26.3214 51.706 25.8167 52.1097 25.7158 52.362C25.2111 53.4723 25.0093 55.289 25.0093 55.289H55.2888C55.2888 55.289 55.0869 53.4723 54.6327 52.3115Z" fill="white"/>
</g>
<defs>
<filter id="filter0_i_10911_2827" x="0" y="0" width="80.2983" height="81.7981" filterUnits="userSpaceOnUse" color-interpolation-filters="sRGB">
<feFlood flood-opacity="0" result="BackgroundImageFix"/>
<feBlend mode="normal" in="SourceGraphic" in2="BackgroundImageFix" result="shape"/>
<feColorMatrix in="SourceAlpha" type="matrix" values="0 0 0 0 0 0 0 0 0 0 0 0 0 0 0 0 0 0 127 0" result="hardAlpha"/>
<feOffset dy="1.5"/>
<feGaussianBlur stdDeviation="2.4"/>
<feComposite in2="hardAlpha" operator="arithmetic" k2="-1" k3="1"/>
<feColorMatrix type="matrix" values="0 0 0 0 1 0 0 0 0 1 0 0 0 0 1 0 0 0 0.25 0"/>
<feBlend mode="normal" in2="shape" result="effect1_innerShadow_10911_2827"/>
</filter>
<linearGradient id="paint0_linear_10911_2827" x1="14.5997" y1="12.3185" x2="60.6798" y2="80.2981" gradientUnits="userSpaceOnUse">
<stop stop-color="white"/>
<stop offset="1" stop-color="white" stop-opacity="0"/>
</linearGradient>
</defs>
</svg>
